<svg xmlns="http://www.w3.org/2000/svg" width="43.795" height="49.54" viewBox="0 0 43.795 49.54"><path d="M32,50.938A18.907,18.907,0,0,1,50.874,32a22.732,22.732,0,0,1,3.449.317A.889.889,0,0,1,54.6,33.96,14.835,14.835,0,0,0,64.68,61.43a.889.889,0,0,1,.853,1.433A18.859,18.859,0,0,1,32,50.938Z" transform="translate(-32 -20.336)" fill="#b8b8b8"/><path d="M34.681,4.416l4.26.628a.947.947,0,0,1,.528,1.612L36.379,9.684l.729,4.344a.95.95,0,0,1-1.381,1l-3.806-2.03-3.8,2.03a.955.955,0,0,1-1-.068.943.943,0,0,1-.379-.927l.729-4.344L24.376,6.656a.952.952,0,0,1-.234-.972.943.943,0,0,1,.763-.64l4.256-.628L31.07.495a.947.947,0,0,1,1.7,0Z" transform="translate(4.046 13.289)" fill="#b8b8b8"/><path d="M30.014,2.452,32.4,2.8a.53.53,0,0,1,.3.9L30.964,5.4l.408,2.429a.531.531,0,0,1-.772.557L28.471,7.248,26.344,8.383a.534.534,0,0,1-.56-.038.527.527,0,0,1-.212-.519L25.98,5.4,24.252,3.7a.533.533,0,0,1-.131-.543.527.527,0,0,1,.426-.358l2.38-.351L28,.259a.53.53,0,0,1,.953,0Z" transform="translate(-0.331 0.039)" fill="#b8b8b8"/></svg>